<svg width="393" height="316" viewBox="0 0 393 316" fill="none" xmlns="http://www.w3.org/2000/svg">
<path d="M0 -6H395.338L407 256.969C407 256.969 333.187 334.388 344 274.221C354.813 214.055 283.5 344.532 268.66 301.187C253.82 257.842 171.421 247.355 189.466 282.42C207.51 317.485 196.842 304.733 132.325 315.015C67.8081 325.297 104.119 233.58 58.1429 294.273C12.1662 354.965 0 270.678 0 256.969C0 243.26 0 -6 0 -6Z" fill="url(#paint0_linear_80_14559)"/>
<path d="M0 -6H395.338L407 256.969C407 256.969 333.187 334.388 344 274.221C354.813 214.055 283.5 344.532 268.66 301.187C253.82 257.842 171.421 247.355 189.466 282.42C207.51 317.485 196.842 304.733 132.325 315.015C67.8081 325.297 104.119 233.58 58.1429 294.273C12.1662 354.965 0 270.678 0 256.969C0 243.26 0 -6 0 -6Z" fill="#171D3E" fill-opacity="0.2"/>
<defs>
<linearGradient id="paint0_linear_80_14559" x1="406.673" y1="170.99" x2="-39.2397" y2="159.479" gradientUnits="userSpaceOnUse">
<stop stop-color="#4D3FA3"/>
<stop offset="0.645" stop-color="#7360C0"/>
<stop offset="1" stop-color="#1D74A3"/>
</linearGradient>
</defs>
</svg>
