<svg width="34" height="31" viewBox="0 0 34 31" fill="none" xmlns="http://www.w3.org/2000/svg">
<path d="M31.1213 21.4804C32.6725 18.4452 33.0014 15.0087 32.0502 11.7744C31.0989 8.54005 28.9283 5.71467 25.9196 3.79436C22.9109 1.87405 19.2563 0.981568 15.5976 1.27364C11.939 1.56571 8.51013 3.02365 5.91317 5.39147C3.31622 7.75928 1.71718 10.8856 1.39684 14.2214C1.07651 17.5573 2.05536 20.8894 4.16151 23.6326C6.26766 26.3759 9.36646 28.3549 12.9138 29.2222C16.4611 30.0896 20.2302 29.7897 23.5591 28.3753L29.06 29.6283C29.5346 29.7363 30.0318 29.7305 30.5032 29.6114C30.9746 29.4923 31.4041 29.264 31.75 28.9486C32.0959 28.6332 32.3464 28.2416 32.477 27.8118C32.6076 27.382 32.614 26.9287 32.4955 26.496L31.1213 21.4804ZM11.3333 18.0833C10.7729 18.0833 10.2251 17.9318 9.75918 17.648C9.29324 17.3641 8.93008 16.9607 8.71563 16.4886C8.50119 16.0166 8.44508 15.4971 8.5544 14.996C8.66373 14.4949 8.93358 14.0346 9.32982 13.6733C9.72607 13.312 10.2309 13.066 10.7805 12.9663C11.3302 12.8666 11.8998 12.9178 12.4176 13.1133C12.9353 13.3088 13.3778 13.64 13.6891 14.0648C14.0005 14.4896 14.1666 14.9891 14.1666 15.5C14.1666 16.1852 13.8681 16.8422 13.3368 17.3267C12.8054 17.8112 12.0847 18.0833 11.3333 18.0833ZM22.6666 18.0833C22.1062 18.0833 21.5585 17.9318 21.0925 17.648C20.6266 17.3641 20.2634 16.9607 20.049 16.4886C19.8345 16.0166 19.7784 15.4971 19.8877 14.996C19.9971 14.4949 20.2669 14.0346 20.6632 13.6733C21.0594 13.312 21.5643 13.066 22.1139 12.9663C22.6635 12.8666 23.2332 12.9178 23.7509 13.1133C24.2686 13.3088 24.7111 13.64 25.0225 14.0648C25.3338 14.4896 25.5 14.9891 25.5 15.5C25.5 16.1852 25.2014 16.8422 24.6701 17.3267C24.1387 17.8112 23.4181 18.0833 22.6666 18.0833Z" fill="#A759C2"/>
</svg>
