<svg width="31" height="31" viewBox="0 0 31 31" fill="none" xmlns="http://www.w3.org/2000/svg">
<rect x="0.5" y="0.5" width="30" height="30" rx="4" fill="#506C96"/>
<path d="M18.2619 6.22729C13.612 6.22729 9.84285 9.7087 9.84285 14.004C9.84285 18.2656 13.5546 21.7247 18.1544 21.778V25.0864L23.9073 19.773C25.611 18.35 26.6818 16.2924 26.6818 14.004C26.6809 9.7087 22.9114 6.22729 18.2619 6.22729Z" fill="white"/>
<path d="M11.2008 21.5186V20.5748L10.3616 20.5654C7.96615 20.5379 6.01764 18.7154 6.01764 16.5024C6.01764 14.6794 7.3233 13.1332 9.11588 12.6195C9.21997 12.0316 9.3895 11.4637 9.61681 10.9221C6.63159 11.2859 4.31812 13.6465 4.31812 16.502C4.31812 19.3064 6.57636 21.6591 9.50124 22.0708V25.3077L13.6952 21.4339C13.1935 21.1686 12.7214 20.8625 12.2834 20.5187L11.2008 21.5186Z" fill="white"/>
</svg>
