<?xml version="1.0" encoding="utf-8"?>
<!-- Generator: Adobe Illustrator 27.5.0, SVG Export Plug-In . SVG Version: 6.00 Build 0)  -->
<svg version="1.1" id="Archaeologist" xmlns="http://www.w3.org/2000/svg" xmlns:xlink="http://www.w3.org/1999/xlink" x="0px"
	 y="0px" viewBox="0 0 2700 2025" style="enable-background:new 0 0 2700 2025;" xml:space="preserve">
<rect style="fill:#FFFFFF;" width="2700" height="2025"/>
<ellipse style="fill:#F8E7DF;" cx="1350" cy="1723.47" rx="1199.679" ry="90.5"/>
<g>
	<path id="XMLID_17_" style="fill:#EEC4AA;" d="M2143.874,1267.823c414.438-268.907,299.471-798.673-400.545-952.147
		c-412.005-90.329-1092.054-62.543-1365.249,366.787c-466.029,732.37,757.261,808.926,1196.407,771.411
		C1750.602,1438.829,1970.793,1380.126,2143.874,1267.823z"/>
	<g>
		<g>
			<defs>
				<path id="XMLID_2_" d="M2145.639,1300.271c414.438-268.907,299.471-798.673-400.545-952.147
					C1333.089,257.794,653.04,285.581,379.845,714.911c-466.029,732.37,757.261,808.926,1196.407,771.411
					C1752.368,1471.276,1972.559,1412.573,2145.639,1300.271z"/>
			</defs>
			<use xlink:href="#XMLID_2_"  style="overflow:visible;fill:#FCF5F2;"/>
			<clipPath id="XMLID_00000024722198591165101520000000877049640881191081_">
				<use xlink:href="#XMLID_2_"  style="overflow:visible;"/>
			</clipPath>
			<path style="clip-path:url(#XMLID_00000024722198591165101520000000877049640881191081_);fill:#FFFFFF;" d="M778.316,713.436
				c3.647-27.523-14.347-56.374-40.669-65.206c-26.322-8.832-58.076,3.327-71.768,27.48c8.681-29.757,4.02-66.098-20.499-85.063
				c-16.559-12.808-38.946-15.406-59.809-13.672c-22.272,1.85-44.773,8.432-61.988,22.684c-7.35,6.085-13.571,13.734-18.01,22.215
				c-0.904-1.476-1.932-2.867-3.097-4.131c-10.755-11.672-27.97-14.827-43.838-14.494c-75.97,1.594-137.232,76.557-126.512,151.784
				H948.88C900.92,716.511,839.416,706.299,778.316,713.436z"/>
			<path style="clip-path:url(#XMLID_00000024722198591165101520000000877049640881191081_);fill:#FFFFFF;" d="M2322.274,758.821
				h-370.328c23.38,0,41.93-15.696,65.032-19.289c-5.511-9.93-1.265-24.025,8.815-29.258c10.08-5.233,24.051-0.594,29,9.627
				c-1.277-19.916,16.359-39.747,36.283-38.598c19.924,1.148,35.229,25.653,25.747,43.214c5.212-12.482,19.657-20.375,32.969-17.977
				c13.312,2.398,24.105,14.871,24.523,28.39c1.727-10.414,12.279-18.557,22.791-17.588c10.511,0.969,19.396,10.904,19.19,21.458
				c11.098-12.855,31.689-8.259,47.698-2.588C2285.711,743.905,2300.558,751.129,2322.274,758.821z"/>
			<g style="clip-path:url(#XMLID_00000024722198591165101520000000877049640881191081_);">
				<polygon style="fill:#F9EBE3;" points="651.367,654.332 468.524,700.471 476.823,727.745 527.558,712.306 673.362,1267.017 
					746.507,1244.758 819.652,1222.499 631.743,680.601 682.478,665.162 				"/>
				<g>
					<path style="fill:#EEC4AA;" d="M527.558,712.306l22.404-6.818c0,0,18.617,178.059,152.052,555.582l-27.88,8.484
						L527.558,712.306z"/>
					<g>
						<path style="fill:#EEC4AA;" d="M625.516,726.395l5.228,14.134l5.149,14.161l10.292,28.324
							c6.793,18.906,13.562,37.821,20.248,56.764c6.74,18.925,13.327,37.902,19.985,56.855l19.747,56.937l19.518,57.016
							c6.424,19.033,12.93,38.039,19.274,57.1c6.399,19.042,12.717,38.112,19.011,57.191l9.334,28.654l4.664,14.328l4.585,14.355
							l-5.23-14.133l-5.15-14.161l-10.295-28.323c-6.793-18.906-13.562-37.821-20.249-56.764
							c-6.741-18.924-13.323-37.903-19.985-56.855l-19.742-56.939l-19.512-57.018c-6.428-19.032-12.927-38.04-19.274-57.1
							c-6.4-19.042-12.717-38.112-19.011-57.19l-9.337-28.653l-4.665-14.328L625.516,726.395z"/>
						<path style="fill:#EEC4AA;" d="M603.299,732.991l4.761,14.298l4.682,14.322l9.357,28.647
							c6.168,19.119,12.313,38.246,18.374,57.398c6.115,19.136,12.075,38.319,18.108,57.48l17.867,57.554l17.635,57.626
							c5.796,19.234,11.674,38.443,17.389,57.702c5.771,19.242,11.459,38.509,17.123,57.784l8.389,28.945l4.192,14.474l4.111,14.498
							l-4.763-14.297l-4.683-14.322l-9.36-28.646c-6.168-19.119-12.313-38.246-18.374-57.398
							c-6.117-19.135-12.071-38.32-18.107-57.481l-17.862-57.556l-17.629-57.628c-5.799-19.233-11.671-38.444-17.389-57.702
							c-5.771-19.242-11.459-38.509-17.123-57.784l-8.392-28.944l-4.193-14.473L603.299,732.991z"/>
						<path style="fill:#EEC4AA;" d="M570.534,742.962l4.761,14.298l4.682,14.322l9.357,28.647
							c6.168,19.119,12.313,38.246,18.374,57.398c6.115,19.136,12.075,38.319,18.108,57.48l17.867,57.554l17.635,57.626
							c5.796,19.234,11.674,38.443,17.389,57.702c5.771,19.242,11.459,38.509,17.123,57.784l8.389,28.945l4.191,14.474l4.111,14.498
							l-4.763-14.297l-4.683-14.322l-9.36-28.646c-6.168-19.119-12.313-38.246-18.374-57.398
							c-6.117-19.135-12.071-38.32-18.107-57.48l-17.862-57.556l-17.629-57.628c-5.799-19.233-11.671-38.444-17.389-57.702
							c-5.771-19.242-11.459-38.509-17.123-57.784l-8.392-28.944l-4.193-14.473L570.534,742.962z"/>
					</g>
				</g>
			</g>
			<g style="clip-path:url(#XMLID_00000024722198591165101520000000877049640881191081_);">
				<g>
					<path style="fill:#F9EBE3;" d="M1482.084,755.565h503.022l-235.117-176.432c-9.714-7.289-23.074-7.289-32.788,0
						L1482.084,755.565z"/>
					<g>
						<rect x="1526.442" y="755.565" style="fill:#F9EBE3;" width="43.318" height="322.596"/>
						<rect x="1897.43" y="755.565" style="fill:#F9EBE3;" width="43.318" height="322.596"/>
						<rect x="1592.606" y="755.565" style="fill:#F9EBE3;" width="43.318" height="322.596"/>
						<rect x="1828.083" y="755.565" style="fill:#F9EBE3;" width="43.318" height="322.596"/>
					</g>
				</g>
				
					<ellipse transform="matrix(0.2298 -0.9732 0.9732 0.2298 691.787 2196.5054)" style="fill:#FFFFFF;" cx="1733.595" cy="661.198" rx="39.466" ry="39.466"/>
			</g>
			<path style="clip-path:url(#XMLID_00000024722198591165101520000000877049640881191081_);fill:#FFFFFF;" d="M877.111,475.384
				c197.34,2.724,394.681,5.448,592.021,8.172l-5.407-5.407c-46.485-8.927-93.241-16.197-139.726-25.124
				c-9.823-27.079-36.685-47.096-65.442-48.765s-57.755,15.106-70.645,40.867c5.924-1.416,7.727-9.85,4.429-14.971
				c-3.298-5.121-9.648-7.35-15.668-8.272c-24.175-3.704-49.999,9.801-60.75,31.768c-26.948-18.171-62.849-36.559-89.634-18.148
				c-5.843,4.017-10.775,9.628-17.473,11.957c-6.132,2.132-12.84,1.193-19.305,0.594
				C951.423,444.528,909.171,454.52,877.111,475.384z"/>
			<g style="clip-path:url(#XMLID_00000024722198591165101520000000877049640881191081_);">
				<defs>
					<path id="XMLID_5_" d="M144.32,1107.452c242.27-84.645,507.733-57.765,762.127-23.952
						c254.394,33.813,515.846,73.219,764.917,11.387c136.443-33.872,263.5-96.945,393.95-149.356
						c130.45-52.411,269.204-94.926,409.388-84.326c-7.188,234.867-29.221,465.118-63.887,697.524
						c-467.022,101.956-949.054,135.256-1425.573,97.385c-240.929-19.147-480.016-56.32-718.834-93.461
						C221.727,1410.96,189.002,1259.145,144.32,1107.452z"/>
				</defs>
				<use xlink:href="#XMLID_5_"  style="overflow:visible;fill:#F4D7C7;"/>
				<clipPath id="XMLID_00000021089384223004011700000000103296818000273047_">
					<use xlink:href="#XMLID_5_"  style="overflow:visible;"/>
				</clipPath>
				<path style="clip-path:url(#XMLID_00000021089384223004011700000000103296818000273047_);fill:#EEC4AA;" d="M904.215,1147.896
					c83.894,4.336,168.457,12.321,248.311,38.404c104.718,34.204,199.413,98.884,307.917,117.934
					c75.213,13.205,152.269,3.563,228.616,1.964c169.348-3.546,339.409,33.45,491.979,107.027
					c-217.144,173.673-515.986,192.622-793.929,200.477c-223.684,6.321-457.841,8.036-657.443-93.124
					c-82.564-41.844-155.721-99.763-228.249-157.274c-47.007-37.274-94.014-74.549-141.021-111.823
					c-11.839-9.388-23.678-18.775-35.516-28.163c-8.314-6.593-24.526-14.8-27.733-25.563c-7.642-25.646,34.301-25.37,48.542-27.268
					c118.337-15.766,237.605-24.547,356.974-26.305C769.863,1143.191,837.096,1144.427,904.215,1147.896z"/>
			</g>
			<g style="clip-path:url(#XMLID_00000024722198591165101520000000877049640881191081_);">
				<polygon style="fill:#F9EBE3;" points="2137.346,637.074 1938.8,601.23 1921.08,621.205 1973,632.005 1834.732,1188.643 
					1909.587,1204.214 1984.441,1219.785 2079.62,654.185 2153.713,669.597 				"/>
				<g>
					<path style="fill:#EEC4AA;" d="M1973,632.005l66.715,13.878c0,0-112.899,156.043-176.991,551.291l-28.532-5.935L1973,632.005z"
						/>
					<g>
						<path style="fill:#EEC4AA;" d="M2052.181,691.373l-2.196,14.909l-2.278,14.895l-4.562,29.789
							c-3.113,19.847-6.251,39.69-9.475,59.518c-3.168,19.838-6.496,39.648-9.749,59.471l-9.997,59.429l-10.236,59.388
							c-3.497,19.782-6.91,39.578-10.49,59.345c-3.523,19.777-7.132,39.54-10.765,59.298l-5.561,29.619l-2.783,14.809l-2.866,14.795
							l2.194-14.909l2.277-14.895l4.559-29.789c3.113-19.847,6.251-39.69,9.474-59.518c3.166-19.838,6.5-39.647,9.749-59.471
							l10.003-59.428l10.243-59.387c3.494-19.782,6.913-39.577,10.491-59.345c3.522-19.777,7.131-39.54,10.765-59.298l5.557-29.619
							l2.782-14.809L2052.181,691.373z"/>
						<path style="fill:#EEC4AA;" d="M2029.525,686.499l-2.684,14.829l-2.765,14.812l-5.538,29.623
							c-3.763,19.734-7.55,39.463-11.423,59.175c-3.818,19.723-7.794,39.413-11.696,59.119l-11.943,59.069l-12.181,59.02
							c-4.145,19.656-8.206,39.329-12.433,58.969c-4.17,19.651-8.426,39.284-12.706,58.913l-6.53,29.42l-3.268,14.709l-3.35,14.693
							l2.682-14.829l2.764-14.813l5.534-29.624c3.763-19.734,7.551-39.463,11.423-59.175c3.816-19.723,7.798-39.413,11.697-59.119
							l11.948-59.068l12.187-59.019c4.141-19.657,8.208-39.329,12.433-58.969c4.17-19.651,8.426-39.284,12.706-58.913l6.527-29.421
							l3.267-14.71L2029.525,686.499z"/>
						<path style="fill:#EEC4AA;" d="M1995.993,679.524l-2.684,14.829l-2.765,14.812l-5.538,29.623
							c-3.763,19.734-7.55,39.463-11.424,59.175c-3.818,19.723-7.794,39.413-11.696,59.119l-11.943,59.069l-12.181,59.02
							c-4.145,19.656-8.206,39.329-12.433,58.969c-4.171,19.651-8.426,39.284-12.706,58.913l-6.53,29.42l-3.268,14.709l-3.35,14.693
							l2.682-14.829l2.764-14.812l5.535-29.624c3.763-19.734,7.551-39.463,11.423-59.175c3.816-19.723,7.798-39.413,11.696-59.119
							l11.949-59.068l12.187-59.019c4.141-19.657,8.208-39.329,12.433-58.969c4.17-19.651,8.426-39.284,12.706-58.913l6.527-29.421
							l3.267-14.71L1995.993,679.524z"/>
					</g>
				</g>
			</g>
			<path style="clip-path:url(#XMLID_00000024722198591165101520000000877049640881191081_);fill:#F4D7C7;" d="M1882.454,1109.986
				c-19.806,12.594-39.612,25.187-59.418,37.781c-14.848,9.441-30.783,20.266-35.862,37.113
				c-5.196,17.236,3.149,36.454,16.757,48.241c13.607,11.787,31.537,17.314,49.258,20.483
				c87.434,15.634,182.305-23.545,233.231-96.316c13.944-19.925,25.536-44.272,22.717-69.219
				c-2.13-18.85-16.232-39.575-34.192-47.04c-14.258-5.926-30.219-1.013-44.412,2.596c-23.921,6.083-47.22,11.779-69.818,22.029
				C1933.369,1078.055,1907.75,1093.902,1882.454,1109.986z"/>
		</g>
		<g>
			<g>
				<g>
					<g>
						<defs>
							<path id="XMLID_4_" d="M2098.593,1138.886c-54.432-5.696-66.595,5.239-66.595,5.239
								c-6.597,55.481,36.747,149.988,36.747,149.988s72.754-70.356,88.829-123.866
								C2157.574,1170.248,2150.781,1155.369,2098.593,1138.886z"/>
						</defs>
						<use xlink:href="#XMLID_4_"  style="overflow:visible;fill:#FFFFFF;"/>
						<clipPath id="XMLID_00000090992797568936461790000016537025049782165175_">
							<use xlink:href="#XMLID_4_"  style="overflow:visible;"/>
						</clipPath>
						<path style="clip-path:url(#XMLID_00000090992797568936461790000016537025049782165175_);fill:#E6E7E8;" d="M2107.86,1220.182
							c-7.251,1.412-14.481,3.52-21.863,3.235c-10.64-0.41-20.447-5.728-30.9-7.756c-10.522-2.041-21.686-0.624-31.365,3.981
							c-2.136,1.016-4.542,2.922-3.905,5.2c0.26,0.93,0.993,1.641,1.71,2.286c20.3,18.281,49.741,21.733,77.058,21.736
							c11.412,0.001,24.578-0.659,32.701-9.85c5.525-6.252,6.915-18.009-3.237-20.51c-3.041-0.749-6.378-0.209-9.446,0.097
							C2115.009,1218.963,2111.418,1219.489,2107.86,1220.182z"/>
					</g>
					<g>
						<defs>
							<path id="XMLID_3_" d="M2155.888,885.354l0.626-3.012l-0.489-0.102l-7.755-1.613l-0.489-0.102l-0.626,3.012
								c-6.985,18.594-44.856,125.054-58.67,282.043l-0.852,4.096l0.489,0.102l7.755,1.613l0.489,0.102l0.852-4.096
								C2147.153,1017.922,2154.878,905.191,2155.888,885.354z"/>
						</defs>
						<use xlink:href="#XMLID_3_"  style="overflow:visible;fill:#494554;"/>
						<clipPath id="XMLID_00000125594340138253310220000017986124762273637794_">
							<use xlink:href="#XMLID_3_"  style="overflow:visible;"/>
						</clipPath>
						<polygon style="clip-path:url(#XMLID_00000125594340138253310220000017986124762273637794_);fill:#FEC089;" points="
							2110.052,1174.339 2071.513,1166.323 2085.917,1114.798 2124.456,1122.814 						"/>
					</g>
					<path style="fill:#494554;" d="M2156.026,884.721c-0.764,0-1.517-0.351-2.003-1.014c-0.81-1.105-0.57-2.657,0.535-3.467
						l39.142-28.682c0.513-0.375,0.492-0.878,0.435-1.145c-0.059-0.267-0.248-0.733-0.87-0.862l-64.345-13.385
						c-0.611-0.129-0.972,0.214-1.133,0.431c-0.159,0.216-0.383,0.66-0.083,1.208l22.743,41.634
						c0.657,1.202,0.215,2.709-0.987,3.366c-1.201,0.658-2.71,0.216-3.366-0.988l-22.743-41.633
						c-1.151-2.106-0.978-4.613,0.451-6.541c1.43-1.929,3.782-2.823,6.128-2.334l64.345,13.385c2.388,0.497,4.191,2.285,4.708,4.668
						c0.517,2.382-0.384,4.758-2.351,6.199l-39.142,28.682C2157.049,884.565,2156.535,884.721,2156.026,884.721z"/>
				</g>
				<path style="fill:#F4D7C7;" d="M2049.857,1224.297c9.463,3.604,17.864,10.007,27.76,12.151
					c18.919,4.1,38.478-8.223,57.447-4.359c6.614,1.347,13.313,5.282,15.31,11.73c1.109,3.583,0.629,7.441,0.108,11.155
					c-3.181,22.652-9.447,47.949-29.298,59.313c-10.69,6.12-23.512,6.971-35.826,7.303c-13.684,0.369-28.024,0.124-40.081-6.358
					c-16.603-8.925-25.149-27.426-36.941-42.132c-5.092-6.351-10.933-12.099-17.348-17.109c-4.998-3.904-11.757-7.525-8.592-14.929
					c2.881-6.742,10.56-10.179,16.821-12.974c7.554-3.372,15.567-5.844,23.798-6.816
					C2032.058,1220.205,2041.317,1221.045,2049.857,1224.297z"/>
			</g>
			<path style="fill:#EEC4AA;" d="M1973.849,1224.27c-3.159,0.795-6.538,1.851-8.44,4.496c-4.403,6.122,2.684,14.344,9.862,16.653
				c14.952,4.811,31.033-1.062,46.735-1.442c16.124-0.39,31.823,5.063,47.909,6.233c21.213,1.543,42.906-4.685,60.071-17.245
				c-10.857-7.422-25.19,1.057-38.317,1.86c-17.033,1.042-32.441-9.959-48.467-14.103c-12.044-3.114-25.451-1.683-37.723-1.111
				C1994.816,1220.109,1984.202,1221.665,1973.849,1224.27z"/>
		</g>
	</g>
</g>
<g>
	<g>
		<defs>
			<path id="XMLID_6_" d="M2402.248,1718.388h-509.885c-10.635,0-19.256-8.621-19.256-19.256v-336.648
				c0-10.635,8.621-19.256,19.256-19.256h509.885c10.635,0,19.257,8.621,19.257,19.256v336.648
				C2421.504,1709.767,2412.883,1718.388,2402.248,1718.388z"/>
		</defs>
		<use xlink:href="#XMLID_6_"  style="overflow:visible;fill:#494554;"/>
		<clipPath id="XMLID_00000162321450945999613960000004407546820287935399_">
			<use xlink:href="#XMLID_6_"  style="overflow:visible;"/>
		</clipPath>
		<path style="clip-path:url(#XMLID_00000162321450945999613960000004407546820287935399_);fill:#37343F;" d="M2284.57,1451.611
			c-12.485,13.201-30.146,19.895-46.904,26.918c-50.527,21.176-98.271,48.98-141.623,82.476
			c-27.133,20.964-52.78,44.296-82.95,60.588c-50.371,27.2-109.223,32.709-166.251,37.691c-12.63,1.103-25.863,2.117-37.515-2.88
			c-20.751-8.899-29.443-33.253-34.59-55.237c-16.366-69.902-19.469-142.885-9.097-213.924c1.795-12.294,4.07-24.77,9.935-35.723
			c7.803-14.571,21.331-25.241,35.538-33.688c62.97-37.44,140.531-37.31,213.78-36.094c66.617,1.105,133.644,2.304,199.462,13.673
			c35.174,6.076,107.877,14.147,98.728,65.624c-2.909,16.367-10.178,32.738-15.982,48.244
			C2301.51,1424.22,2295.726,1439.816,2284.57,1451.611z"/>
	</g>
	<g>
		<line style="fill:#494554;" x1="2421.504" y1="1417.821" x2="1873.107" y2="1417.821"/>
		<path style="fill:#828993;" d="M2421.504,1417.821l-17.137,0.3l-17.137,0.227l-34.275,0.448l-68.55,0.557
			c-45.7,0.366-91.399,0.417-137.099,0.467l-68.55-0.105c-22.85-0.119-45.7-0.129-68.55-0.355l-68.55-0.558l-34.275-0.45
			l-17.137-0.228l-17.137-0.302l17.137-0.302l17.137-0.228l34.275-0.45l68.55-0.558c22.85-0.227,45.7-0.236,68.55-0.355l68.55-0.105
			c45.7,0.05,91.4,0.102,137.099,0.467l68.55,0.557l34.275,0.448l17.137,0.227L2421.504,1417.821z"/>
	</g>
	<path style="fill:#FEC089;" d="M2147.305,1453.676L2147.305,1453.676c-9.803,0-17.75-7.947-17.75-17.75v-36.211
		c0-9.803,7.947-17.75,17.75-17.75l0,0c9.803,0,17.75,7.947,17.75,17.75v36.211
		C2165.056,1445.729,2157.109,1453.676,2147.305,1453.676z"/>
</g>
<g id="character">
	<g>
		<g>
			<path style="fill:#4462A2;" d="M1390.969,1058.982c0,0-0.936,16.365,0,92.573c0.696,56.685,80.704,552.835,80.704,552.835h86.381
				l-30.19-557.502l112.458,557.502h83.788c0,0-63.54-537.572-70.078-603.725c-11.397-115.312-110.192-153.626-110.192-153.626
				L1390.969,1058.982z"/>
		</g>
		<g>
			<path style="fill:#494554;" d="M1646.708,1449.966c-0.087-0.96-8.872-97.17-26.306-199.616
				c-23.045-135.413-50.644-220.146-79.813-245.039l1.215-1.424c16.507,14.087,32.385,46.336,47.192,95.854
				c11.816,39.509,23.004,90.08,33.253,150.307c17.445,102.517,26.235,198.79,26.322,199.751L1646.708,1449.966z"/>
		</g>
		<g>
			<path style="fill:#494554;" d="M1491.423,1473.875c-17.042-91.797-51.173-404.925-51.516-408.076l1.86-0.203
				c0.342,3.152,34.466,316.209,51.495,407.938L1491.423,1473.875z"/>
		</g>
	</g>
	<g>
		<g>
			<g>
				<polygon style="fill:#DF785A;" points="1207.543,1214.076 1205.539,1222.01 1173.121,1212.679 1182.316,1200.732 				"/>
			</g>
			<g>
				<path style="fill:#FFA184;" d="M1363.244,1024.335l-19.995-19.737l-67.915,20.268l13.813,50.525
					c0,0-56.067,43.036-117.523,118.265l-0.094-0.062l-9.245,12.297l-6.556,15.808c0,0,5.082,1.514,10.483-2.124
					c2.942-1.982,7.456-7.395,10.957-11.913c3.067-3.958,8.531-5.138,12.957-2.797l17.415,9.211c0,0,154.304-82.171,159.545-108.568
					C1372.329,1079.11,1363.244,1024.335,1363.244,1024.335z"/>
			</g>
		</g>
		<g>
			<path style="fill:#DF785A;" d="M1275.334,1024.866l66.774-19.099l21.136,18.568c0,0,6.256,25.507,4.128,45.371
				c0,0-23.784,19.172-78.224,5.684L1275.334,1024.866z"/>
		</g>
	</g>
	<g>
		<path style="fill:#F8E7DF;" d="M1411.424,1074.19l-185.137-182.753c0,0,6.24-72.417,59.199-115.648
			c52.96-43.232,155.351-36.523,155.351-36.523l113.983,229.92L1411.424,1074.19z"/>
	</g>
	<g>
		<polygon style="fill:#FEC089;" points="1226.287,891.437 1242.564,1035.474 1342.109,1005.767 		"/>
	</g>
	<g>
		<polygon style="fill:#FEC089;" points="1440.837,739.266 1585.134,796.266 1520.247,899.448 		"/>
	</g>
	<g>
		<g>
			<g>
				<path style="fill:#FFA184;" d="M1169.735,666.704l26.663,81.987c8.142,25.036,31.369,42.072,57.695,42.316l0,0l0,0
					c5.656,10.283,18.303,23.381,28.382,29.394l46.838,26.032l5.751-41.44c2.558-18.432-0.379-37.208-8.443-53.978l-59.042-122.779
					L1169.735,666.704z"/>
			</g>
			<g>
				<g>
					<path style="fill:#494554;" d="M1223.459,727.515c1.182,3.006,3.706,4.826,5.638,4.067c1.932-0.76,2.541-3.812,1.359-6.818
						c-1.182-3.006-3.706-4.826-5.638-4.067C1222.886,721.456,1222.278,724.509,1223.459,727.515z"/>
				</g>
			</g>
			<g>
				<g>
					<path style="fill:#494554;" d="M1199.67,737.473c1.068,2.716,3.349,4.361,5.095,3.675c1.746-0.686,2.296-3.445,1.228-6.161
						c-1.068-2.716-3.349-4.361-5.095-3.675C1199.152,731.999,1198.602,734.757,1199.67,737.473z"/>
				</g>
			</g>
			<g>
				<g>
					<path style="fill:#494554;" d="M1213.722,721.245c-0.344,3.812-0.235,7.594,0.078,11.357c0.297,3.768,0.88,7.503,1.71,11.232
						c0.471,1.854,0.97,3.71,1.685,5.571c0.38,0.926,0.785,1.848,1.414,2.817c0.311,0.472,0.68,1,1.381,1.508
						c0.133,0.118,0.456,0.246,0.691,0.336c0.238,0.106,0.524,0.159,0.868,0.139c0.813-0.038,0.816-0.174,1.124-0.252
						c1.997-0.741,3.598-1.881,5.114-3.079c1.484-1.242,2.867-2.567,4.047-4.083c-1.713,0.857-3.358,1.748-5.044,2.497
						c-1.652,0.777-3.365,1.468-4.958,1.809c-0.144,0.036-0.578,0.108-0.241,0.02c0.104,0.012,0.164,0.029,0.195,0.005
						c0.033-0.022,0.105,0.069,0.076,0.011c-0.032-0.075-0.241-0.305-0.392-0.643c-0.333-0.638-0.625-1.466-0.871-2.301
						c-0.532-1.669-0.984-3.44-1.375-5.228l-2.494-10.826C1215.869,728.502,1214.945,724.867,1213.722,721.245z"/>
				</g>
			</g>
			<g>
				<g>
					<path style="fill:#494554;" d="M1203.823,712.853c0,0-8.83,13.975-23.469,16.389
						C1180.354,729.242,1183.214,711.068,1203.823,712.853z"/>
				</g>
			</g>
			<g>
				<g>
					<path style="fill:#494554;" d="M1237.95,705.377c0,0-13.764,9.156-28.114,5.385
						C1209.836,710.762,1219.864,695.337,1237.95,705.377z"/>
				</g>
			</g>
			<g>
				<g>
					<path style="fill:#494554;" d="M1204.723,750.326c-7.087,2.786-15.12-0.712-17.906-7.8c-2.786-7.087,0.713-15.12,7.8-17.906
						c7.087-2.786,15.12,0.713,17.906,7.8C1215.309,739.507,1211.811,747.539,1204.723,750.326z M1195.06,725.747
						c-6.465,2.542-9.657,9.87-7.115,16.335c2.542,6.466,9.87,9.657,16.335,7.115c6.465-2.542,9.657-9.87,7.115-16.335
						C1208.854,726.397,1201.525,723.206,1195.06,725.747z"/>
				</g>
			</g>
			<g>
				<g>
					<path style="fill:#494554;" d="M1235.716,738.141c-7.087,2.786-15.12-0.713-17.906-7.8c-2.786-7.087,0.713-15.12,7.8-17.906
						c7.087-2.786,15.12,0.713,17.906,7.8C1246.302,727.322,1242.803,735.354,1235.716,738.141z M1226.053,713.563
						c-6.465,2.542-9.657,9.87-7.115,16.335c2.542,6.465,9.87,9.657,16.335,7.115c6.465-2.542,9.657-9.87,7.115-16.335
						C1239.846,714.213,1232.518,711.021,1226.053,713.563z"/>
				</g>
			</g>
			<g>
				<path style="fill:#FCF5F2;" d="M1221.686,766.215c0,0,14.059-2.988,22.317-14.275
					C1244.002,751.94,1246.973,783.739,1221.686,766.215z"/>
			</g>
			<g>
				<path style="fill:#494554;" d="M1275.455,644.614c0,0-29.201,34.857-92.409,63.018c0,0-34.508-30.42-14.612-58.893
					c19.896-28.473,103.431-24.676,103.431-24.676L1275.455,644.614z"/>
			</g>
			<g>
				<path style="fill:#494554;" d="M1246.91,647.049c0,0-1.307,43.628,42.711,34.44l39.322,74.352l50.404-52.602
					c0,0-61.188-83.655-94.251-96.721c-51.647-20.409-88.501,24.838-88.501,24.838L1246.91,647.049z"/>
			</g>
			<g>
				<g>
					
						<ellipse transform="matrix(0.2037 -0.979 0.979 0.2037 359.9554 1823.394)" style="fill:#FFA184;" cx="1300.846" cy="690.427" rx="26.327" ry="16.141"/>
				</g>
				<g>
					<path style="fill:#494554;" d="M1295.714,692.444c1.209-4.702,1.902-9.264,3.189-13.54c0.657-2.108,1.418-4.166,2.644-5.788
						c0.624-0.794,1.359-1.495,2.298-1.966c0.93-0.509,2.05-0.739,3.275-0.885c-1.095-0.548-2.39-0.784-3.723-0.613
						c-1.326,0.193-2.62,0.834-3.631,1.731c-2.078,1.795-3.169,4.241-3.911,6.602c-0.704,2.395-1.034,4.837-1.043,7.262
						C1294.787,687.669,1295.013,690.093,1295.714,692.444z"/>
				</g>
			</g>
			<g>
				
					<rect x="1235.292" y="698.003" transform="matrix(0.7878 -0.616 0.616 0.7878 -162.0704 926.6017)" style="fill:#494554;" width="56.779" height="1"/>
			</g>
		</g>
		<g>
			<path style="fill:#DF785A;" d="M1254.093,791.006c0,0,17.456-0.809,28.336-15.404c3.154-4.231,9.812-1.236,8.719,3.927
				c-1.751,8.274-7.361,18.879-21.661,30.616C1269.487,810.145,1260.503,803.544,1254.093,791.006z"/>
		</g>
	</g>
	<g>
		<g>
			<path style="fill:#494554;" d="M1556.555,1106.972l-324.426-115.767c-0.193-0.069-0.388-0.118-0.583-0.175
				c2.404-9.679,3.682-19.734,3.682-30.057c0-76.478-69.57-138.477-155.389-138.477c-85.819,0-155.389,61.998-155.389,138.477
				s69.57,138.477,155.389,138.477c57.176,0,107.13-27.524,134.113-68.51c0.96,0.804,2.068,1.464,3.317,1.91l324.426,115.766
				c5.65,2.016,11.865-0.93,13.881-6.58l7.559-21.183C1565.151,1115.203,1562.205,1108.988,1556.555,1106.972z"/>
		</g>
		<g>
			<defs>
				<ellipse id="SVGID_1_" cx="1079.839" cy="960.972" rx="130.959" ry="116.705"/>
			</defs>
			<use xlink:href="#SVGID_1_"  style="overflow:visible;fill:#FFFFFF;"/>
			<clipPath id="SVGID_00000142149569505755692850000008351468024625944707_">
				<use xlink:href="#SVGID_1_"  style="overflow:visible;"/>
			</clipPath>
			<g style="clip-path:url(#SVGID_00000142149569505755692850000008351468024625944707_);">
				
					<rect x="995.313" y="811.936" transform="matrix(0.9071 0.4209 -0.4209 0.9071 497.5627 -347.3817)" style="fill:#FCF5F2;" width="80.902" height="283.173"/>
			</g>
			<g style="clip-path:url(#SVGID_00000142149569505755692850000008351468024625944707_);">
				
					<rect x="1099.632" y="834.298" transform="matrix(0.9071 0.4209 -0.4209 0.9071 514.4609 -379.2243)" style="fill:#FCF5F2;" width="33.44" height="283.173"/>
			</g>
		</g>
	</g>
	<g>
		<path style="fill:#FFA184;" d="M1647.296,878.589c-9.324-31.947-73.394-64.463-73.394-64.463l-48.617,77.31l21.552,14.438
			c-36.011,10.399-106,159.823-106,159.823l-35.155,28.881c-2.48,2.038-2.498,5.848-0.008,7.875
			c4.924,4.007,7.155,12.984,18.105,15.51c17.478,4.033,32.069-0.111,32.069-0.111s22.884-21.384,24.828-38.087l0,0
			C1515.98,1045.223,1655.445,906.508,1647.296,878.589z"/>
	</g>
	<g>
		<g>
			<path style="fill:#FEC089;" d="M1329.313,846.432l29.87-9.006c0,0,4.807-70.102-30.241-81.586
				C1328.942,755.841,1338.805,799.77,1329.313,846.432z"/>
		</g>
		<g>
			<path style="fill:#FEC089;" d="M1261.01,801.633c0,0-6.917,41.001,55.335,66.029l12.968-21.23
				C1329.313,846.432,1288.091,825.09,1261.01,801.633z"/>
		</g>
	</g>
	<g>
		<path style="fill:#DF785A;" d="M1573.902,814.126c0,0-15.368,70.259-38.71,83.947l-9.907-6.636L1573.902,814.126L1573.902,814.126
			z"/>
	</g>
</g>
<g>
	<g>
		<path style="fill:#FCF5F2;" d="M379.43,1576.784l329.261-158.963c0,0,404.738-109.301,627.812,134.536l-59.749,144.503
			L379.43,1576.784z"/>
		<path style="fill:#FFFFFF;" d="M2137.346,1570.121l-197.609-152.301c0,0-306.584-106.659-569.519,88.233l-93.464,127.097
			L2137.346,1570.121z"/>
		<g>
			<path style="fill:#FFFFFF;" d="M472.151,1376.583c0,0,225.281-131.415,399.409-130.714l250.575-0.003l214.368,306.49
				l-62.149,100.402C1274.354,1652.759,1139.596,1265.365,472.151,1376.583z"/>
			<path style="fill:#FFFFFF;" d="M1274.354,1652.759c0,0-105.076-441.544-672.305-449.59c0,0,398.079-64.366,657.65,36.206
				c0,0,133.776,96.851,148.399,287.932L1274.354,1652.759z"/>
			<path style="fill:#F8E7DF;" d="M602.049,1203.169c18.278-1.693,36.678-2.035,55.049-1.746c18.379,0.296,36.747,1.389,55.068,3.07
				c36.631,3.465,73.056,9.549,108.851,18.366c4.487,1.052,8.936,2.253,13.396,3.419c4.468,1.134,8.896,2.415,13.333,3.668
				c4.45,1.211,8.848,2.596,13.254,3.955c2.201,0.685,4.411,1.344,6.606,2.051l6.568,2.17c17.513,5.797,34.81,12.27,51.829,19.428
				c17.035,7.126,33.688,15.16,50.013,23.801c16.318,8.659,32.281,17.995,47.816,28.012c15.447,10.152,30.437,20.992,44.946,32.441
				l10.781,8.715l10.525,9.022c3.546,2.965,6.907,6.139,10.328,9.244c3.411,3.118,6.852,6.202,10.109,9.482
				c26.601,25.662,50.756,53.823,72.08,83.944c21.147,30.238,39.866,62.156,55.392,95.54
				c15.554,33.362,28.556,67.853,38.763,103.106c-12.184-34.614-26.284-68.5-42.89-101.087c-1.038-2.036-2.024-4.098-3.082-6.123
				l-3.25-6.036l-6.496-12.067l-6.868-11.855l-3.438-5.922c-1.148-1.973-2.403-3.882-3.598-5.826l-7.24-11.619
				c-2.452-3.847-5.034-7.61-7.544-11.419l-3.789-5.696c-1.258-1.902-2.63-3.726-3.939-5.592l-7.942-11.135
				c-2.728-3.652-5.523-7.254-8.279-10.883l-4.15-5.431l-4.322-5.295c-2.895-3.518-5.705-7.105-8.637-10.591l-8.934-10.338
				c-2.926-3.491-6.097-6.765-9.161-10.132c-3.099-3.336-6.123-6.742-9.36-9.945l-9.569-9.744l-9.862-9.444
				c-3.249-3.189-6.675-6.186-10.037-9.254c-3.382-3.045-6.703-6.158-10.207-9.063l-10.4-8.843l-10.65-8.54
				c-14.331-11.221-29.142-21.823-44.381-31.779c-30.528-19.834-62.744-37.089-96.207-51.53c-16.712-7.264-33.72-13.863-50.964-19.8
				l-6.468-2.223c-2.161-0.725-4.339-1.402-6.508-2.106l-6.513-2.093c-2.169-0.703-4.363-1.328-6.541-2.005
				c-4.364-1.326-8.722-2.681-13.121-3.89c-4.391-1.241-8.772-2.518-13.194-3.647c-17.636-4.719-35.465-8.718-53.396-12.233
				c-17.934-3.503-35.997-6.399-54.15-8.637c-9.069-1.193-18.171-2.126-27.28-3.002c-9.114-0.827-18.244-1.479-27.385-2.033
				c-9.141-0.539-18.296-0.891-27.457-1.045C620.386,1202.787,611.214,1202.752,602.049,1203.169z"/>
			<path style="fill:#F8E7DF;" d="M1276.754,1633.15c0,0-182.333-370.498-804.603-256.567
				C472.151,1376.583,998.251,1266.14,1276.754,1633.15z"/>
		</g>
		<path style="fill:#F4D7C7;" d="M1276.754,1633.15c0,0-2.624-282.821-708.414-95.125l-188.911,38.759l-65.594,120.075h962.918
			h928.81l-68.218-126.738c0,0-223.019-54.301-456.533-77.915C1447.298,1468.593,1305.616,1569.442,1276.754,1633.15z"/>
		<path style="fill:#4462A2;" d="M2220.005,1690.558h-876.13c-2.344-21.631-13.915-60.553-67.121-57.407
			c-58.578,3.463-67.626,42.009-68.894,57.407H308.349c-7.685,0-13.915,6.23-13.915,13.915v0c0,7.685,6.23,13.915,13.915,13.915
			h1911.656c7.685,0,13.915-6.23,13.915-13.915v0C2233.92,1696.788,2227.69,1690.558,2220.005,1690.558z"/>
		<path style="fill:#F8E7DF;" d="M1276.754,1633.15c0,0,44.493-95.858,131.344-152.964
			C1408.098,1480.186,1282.194,1525.855,1276.754,1633.15z"/>
	</g>
	<path style="fill:#FCF5F2;" d="M577.466,1598.886c0,0,414.839-122.675,651.864,20.111
		C1229.33,1618.996,1001.8,1516.432,577.466,1598.886z"/>
	<path style="fill:#FCF5F2;" d="M1372.022,1617.342c0,0,212.622-79.881,435.466-26.725
		C1807.488,1590.616,1570.333,1500.956,1372.022,1617.342z"/>
</g>
</svg>
