<svg width="39" height="38" viewBox="0 0 39 38" fill="none" xmlns="http://www.w3.org/2000/svg">
<g filter="url(#filter0_d_80_14722)">
<rect x="4.5" width="30" height="30" rx="4" fill="#80CC5C"/>
<path d="M21.1444 8.12052C23.2632 8.12052 25.2045 8.84975 26.7109 10.061L27.6898 9.10007L29.2205 10.6016L28.2001 11.6027L28.3861 11.8621C29.2913 13.1769 29.8183 14.7527 29.8183 16.4467C29.8183 20.8793 26.2098 24.503 21.6587 24.7584L21.4002 24.7693L21.1444 24.7728L20.8887 24.7693L20.6301 24.7584C16.0791 24.503 12.4705 20.8793 12.4705 16.4467C12.4705 11.8483 16.354 8.12052 21.1444 8.12052ZM22.1649 12.5285H20.124V18.4058H22.1649V12.5285ZM11.4501 12.0387V13.9978H9.40918V12.0387H11.4501ZM13.491 9.10007V11.0592H9.40918V9.10007H13.491ZM15.5319 6.16143V8.12052H10.4296V6.16143H15.5319ZM24.2058 5.18188V7.14098H18.083V5.18188H24.2058Z" fill="white"/>
</g>
<defs>
<filter id="filter0_d_80_14722" x="0.5" y="0" width="38" height="38" filterUnits="userSpaceOnUse" color-interpolation-filters="sRGB">
<feFlood flood-opacity="0" result="BackgroundImageFix"/>
<feColorMatrix in="SourceAlpha" type="matrix" values="0 0 0 0 0 0 0 0 0 0 0 0 0 0 0 0 0 0 127 0" result="hardAlpha"/>
<feOffset dy="4"/>
<feGaussianBlur stdDeviation="2"/>
<feComposite in2="hardAlpha" operator="out"/>
<feColorMatrix type="matrix" values="0 0 0 0 0 0 0 0 0 0 0 0 0 0 0 0 0 0 0.25 0"/>
<feBlend mode="normal" in2="BackgroundImageFix" result="effect1_dropShadow_80_14722"/>
<feBlend mode="normal" in="SourceGraphic" in2="effect1_dropShadow_80_14722" result="shape"/>
</filter>
</defs>
</svg>
