<svg width="31" height="30" viewBox="0 0 31 30" fill="none" xmlns="http://www.w3.org/2000/svg">
<rect x="0.5" width="30" height="30" rx="4" fill="#DC6B7F"/>
<path d="M15.2905 22.0765C15.1814 22.0762 15.0735 22.0531 14.974 22.0086C14.8744 21.9641 14.7854 21.8992 14.7126 21.8182L7.4335 13.7781C7.33348 13.6667 7.26792 13.5289 7.24471 13.3813C7.22151 13.2336 7.24166 13.0825 7.30272 12.946C7.36379 12.8095 7.46317 12.6935 7.5889 12.6119C7.71464 12.5304 7.86135 12.4868 8.01139 12.4864H10.9262V5.4115C10.9262 5.20595 11.0082 5.00882 11.1542 4.86347C11.3001 4.71813 11.498 4.63647 11.7044 4.63647H18.8787C19.0851 4.63647 19.283 4.71813 19.4289 4.86347C19.5748 5.00882 19.6568 5.20595 19.6568 5.4115V12.4843H22.5701C22.7201 12.4847 22.8669 12.5283 22.9926 12.6099C23.1183 12.6914 23.2177 12.8074 23.2788 12.9439C23.3398 13.0804 23.36 13.2316 23.3368 13.3792C23.3136 13.5269 23.248 13.6647 23.148 13.776L15.8684 21.8202C15.7954 21.9009 15.7063 21.9654 15.6068 22.0095C15.5072 22.0537 15.3995 22.0765 15.2905 22.0765ZM9.76061 14.0344L15.2905 20.1441L20.8209 14.0344H18.8787C18.6723 14.0344 18.4744 13.9527 18.3285 13.8074C18.1825 13.662 18.1006 13.4649 18.1006 13.2594V6.18652H12.4825V13.2594C12.4825 13.4649 12.4005 13.662 12.2546 13.8074C12.1087 13.9527 11.9107 14.0344 11.7044 14.0344H9.76061Z" fill="white"/>
<path d="M22.3304 25.407H8.25096C7.35294 25.406 6.49197 25.0503 5.85693 24.4179C5.22188 23.7855 4.86462 22.928 4.86353 22.0336V20.0614C4.86353 19.8558 4.94551 19.6587 5.09143 19.5134C5.23736 19.368 5.43528 19.2864 5.64165 19.2864C5.84802 19.2864 6.04594 19.368 6.19187 19.5134C6.33779 19.6587 6.41978 19.8558 6.41978 20.0614V22.0336C6.42046 22.517 6.61363 22.9805 6.95691 23.3223C7.30019 23.6641 7.76556 23.8564 8.25096 23.8569H22.3304C22.8157 23.8564 23.281 23.6641 23.6242 23.3223C23.9674 22.9804 24.1605 22.517 24.161 22.0336V20.0614C24.161 19.8558 24.243 19.6587 24.3889 19.5134C24.5349 19.368 24.7328 19.2864 24.9391 19.2864C25.1455 19.2864 25.3434 19.368 25.4894 19.5134C25.6353 19.6587 25.7173 19.8558 25.7173 20.0614V22.0336C25.7162 22.9279 25.359 23.7853 24.7241 24.4177C24.0891 25.0501 23.2283 25.4059 22.3304 25.407Z" fill="white"/>
</svg>
