<svg width="31" height="30" viewBox="0 0 31 30" fill="none" xmlns="http://www.w3.org/2000/svg">
<rect x="0.5" width="30" height="30" rx="4" fill="#E66D52"/>
<path d="M25.0313 17.303L25.0394 17.3133L25.0162 7.15162C25.0162 6.66609 24.6043 6.27271 24.0978 6.27271C23.8169 6.27271 23.5769 6.3989 23.4073 6.58763L23.3992 6.58504L20.142 10.419V10.4327C18.9647 9.46862 17.4423 8.87873 15.7708 8.87873C14.1152 8.87873 12.6064 9.459 11.4314 10.4067L11.438 10.3894L8.18617 6.59837L8.17612 6.60318C8.00766 6.4063 7.76308 6.27271 7.47832 6.27271C6.97486 6.27271 6.56684 6.66313 6.56684 7.14533L6.50116 17.4344C6.50116 17.4366 6.5 17.4395 6.5 17.4406C6.5 17.444 6.5 17.4473 6.5 17.4484V17.5161H6.50464C6.54521 20.9393 9.40868 23.7081 12.9711 23.7955V23.8044H18.3979C22.0669 23.8044 25.0417 20.9552 25.0417 17.441C25.0417 17.3948 25.0313 17.35 25.0313 17.303ZM17.9381 22.696H13.9008C13.8015 22.7004 13.7033 22.7101 13.6029 22.7101C10.3105 22.7101 7.64214 20.1533 7.64214 17.0003C7.64214 16.8689 7.6491 16.7386 7.65799 16.6087L7.65683 16.6102V7.44878L11.3139 11.7331C11.3139 11.7331 11.3135 11.7371 11.3135 11.7379C11.3383 11.7279 11.3607 11.7142 11.3858 11.7042C12.5094 10.631 14.0592 9.96747 15.7708 9.96747C17.4694 9.96747 19.0083 10.6221 20.1288 11.6809L23.8922 7.44841V16.7427L23.8891 16.7423C23.893 16.8234 23.8988 16.9044 23.8988 16.9869C23.8992 20.1396 21.2308 22.696 17.9381 22.696Z" fill="white"/>
<path d="M12.3085 15.859C12.8605 15.859 13.308 15.4303 13.308 14.9016C13.308 14.3729 12.8605 13.9442 12.3085 13.9442C11.7564 13.9442 11.3089 14.3729 11.3089 14.9016C11.3089 15.4303 11.7564 15.859 12.3085 15.859Z" fill="white"/>
<path d="M19.2332 15.859C19.7853 15.859 20.2328 15.4303 20.2328 14.9016C20.2328 14.3729 19.7853 13.9442 19.2332 13.9442C18.6812 13.9442 18.2336 14.3729 18.2336 14.9016C18.2336 15.4303 18.6812 15.859 19.2332 15.859Z" fill="white"/>
<path d="M15.7708 18.861L17.77 16.998H13.7721L15.7708 18.861Z" fill="white"/>
</svg>
